<mxfile host="app.diagrams.net" modified="2024-05-30T10:06:06.129Z" agent="Mozilla/5.0 (Windows NT 10.0; Win64; x64) AppleWebKit/537.36 (KHTML, like Gecko) Chrome/125.0.0.0 Safari/537.36 Edg/125.0.0.0" etag="cdTJkUNKjMNtIAsObUfl" version="24.4.10" type="onedrive">
  <diagram name="ページ1" id="2v8S2WhYaW1vxzrCZ274">
    <mxGraphModel grid="1" page="1" gridSize="10" guides="1" tooltips="1" connect="1" arrows="1" fold="1" pageScale="1" pageWidth="827" pageHeight="1169" math="0" shadow="0">
      <root>
        <mxCell id="0" />
        <mxCell id="1" parent="0" />
        <mxCell id="bo8rSaAs7Vkt7RUqf-Bw-7" style="edgeStyle=orthogonalEdgeStyle;rounded=0;orthogonalLoop=1;jettySize=auto;html=1;exitX=0.5;exitY=1;exitDx=0;exitDy=0;entryX=0.5;entryY=0;entryDx=0;entryDy=0;" edge="1" parent="1" source="bo8rSaAs7Vkt7RUqf-Bw-1" target="bo8rSaAs7Vkt7RUqf-Bw-2">
          <mxGeometry relative="1" as="geometry" />
        </mxCell>
        <mxCell id="bo8rSaAs7Vkt7RUqf-Bw-1" value="クラスの定義&lt;div&gt;開始&lt;/div&gt;" style="rounded=0;whiteSpace=wrap;html=1;" vertex="1" parent="1">
          <mxGeometry x="120" width="120" height="60" as="geometry" />
        </mxCell>
        <mxCell id="bo8rSaAs7Vkt7RUqf-Bw-8" style="edgeStyle=orthogonalEdgeStyle;rounded=0;orthogonalLoop=1;jettySize=auto;html=1;exitX=0.5;exitY=1;exitDx=0;exitDy=0;entryX=0.5;entryY=0;entryDx=0;entryDy=0;" edge="1" parent="1" source="bo8rSaAs7Vkt7RUqf-Bw-2" target="bo8rSaAs7Vkt7RUqf-Bw-3">
          <mxGeometry relative="1" as="geometry" />
        </mxCell>
        <mxCell id="bo8rSaAs7Vkt7RUqf-Bw-2" value="__init__(self.number&lt;div&gt;,name,score)&lt;/div&gt;" style="rounded=1;whiteSpace=wrap;html=1;" vertex="1" parent="1">
          <mxGeometry x="120" y="80" width="120" height="60" as="geometry" />
        </mxCell>
        <mxCell id="bo8rSaAs7Vkt7RUqf-Bw-9" style="edgeStyle=orthogonalEdgeStyle;rounded=0;orthogonalLoop=1;jettySize=auto;html=1;exitX=0.5;exitY=1;exitDx=0;exitDy=0;entryX=0.5;entryY=0;entryDx=0;entryDy=0;" edge="1" parent="1" source="bo8rSaAs7Vkt7RUqf-Bw-3" target="bo8rSaAs7Vkt7RUqf-Bw-4">
          <mxGeometry relative="1" as="geometry" />
        </mxCell>
        <mxCell id="bo8rSaAs7Vkt7RUqf-Bw-3" value="self.number&amp;nbsp; = number" style="rounded=1;whiteSpace=wrap;html=1;" vertex="1" parent="1">
          <mxGeometry x="120" y="160" width="120" height="60" as="geometry" />
        </mxCell>
        <mxCell id="bo8rSaAs7Vkt7RUqf-Bw-10" style="edgeStyle=orthogonalEdgeStyle;rounded=0;orthogonalLoop=1;jettySize=auto;html=1;exitX=0.5;exitY=1;exitDx=0;exitDy=0;entryX=0.5;entryY=0;entryDx=0;entryDy=0;" edge="1" parent="1" source="bo8rSaAs7Vkt7RUqf-Bw-4" target="bo8rSaAs7Vkt7RUqf-Bw-5">
          <mxGeometry relative="1" as="geometry" />
        </mxCell>
        <mxCell id="bo8rSaAs7Vkt7RUqf-Bw-4" value="self.name = name" style="rounded=1;whiteSpace=wrap;html=1;" vertex="1" parent="1">
          <mxGeometry x="120" y="240" width="120" height="60" as="geometry" />
        </mxCell>
        <mxCell id="bo8rSaAs7Vkt7RUqf-Bw-11" style="edgeStyle=orthogonalEdgeStyle;rounded=0;orthogonalLoop=1;jettySize=auto;html=1;exitX=0.5;exitY=1;exitDx=0;exitDy=0;entryX=0.5;entryY=0;entryDx=0;entryDy=0;" edge="1" parent="1" source="bo8rSaAs7Vkt7RUqf-Bw-5" target="bo8rSaAs7Vkt7RUqf-Bw-6">
          <mxGeometry relative="1" as="geometry" />
        </mxCell>
        <mxCell id="bo8rSaAs7Vkt7RUqf-Bw-5" value="self.score = score" style="rounded=1;whiteSpace=wrap;html=1;" vertex="1" parent="1">
          <mxGeometry x="120" y="320" width="120" height="60" as="geometry" />
        </mxCell>
        <mxCell id="bo8rSaAs7Vkt7RUqf-Bw-6" value="終了" style="rounded=0;whiteSpace=wrap;html=1;" vertex="1" parent="1">
          <mxGeometry x="120" y="400" width="120" height="60" as="geometry" />
        </mxCell>
      </root>
    </mxGraphModel>
  </diagram>
</mxfile>
